<svg width="22" height="22" viewBox="0 0 22 22" fill="none" xmlns="http://www.w3.org/2000/svg">
<path fill-rule="evenodd" clip-rule="evenodd" d="M15.8602 6.09288C15.8962 6.15228 15.9591 6.1947 16.04 6.1947C18.1965 6.1947 19.9577 7.85773 19.9577 9.89409V14.9341C19.9577 16.9704 18.1965 18.6335 16.04 18.6335H5.90409C3.73854 18.6335 1.98633 16.9704 1.98633 14.9341V9.89409C1.98633 7.85773 3.73854 6.1947 5.90409 6.1947C5.97598 6.1947 6.04786 6.16076 6.07482 6.09288L6.12874 5.99107C6.15971 5.92944 6.1915 5.86614 6.22377 5.80188C6.45365 5.34416 6.70797 4.83777 6.86556 4.54016C7.2789 3.77652 7.97979 3.35228 8.8514 3.3438H13.0837C13.9553 3.35228 14.6651 3.77652 15.0785 4.54016C15.22 4.80744 15.4357 5.23799 15.6435 5.65295C15.6864 5.73856 15.7289 5.82351 15.7704 5.90622L15.8602 6.09288ZM15.2043 9.35106C15.2043 9.7753 15.5637 10.1147 16.013 10.1147C16.4623 10.1147 16.8307 9.7753 16.8307 9.35106C16.8307 8.92682 16.4623 8.57894 16.013 8.57894C15.5637 8.57894 15.2043 8.92682 15.2043 9.35106ZM9.4175 10.6662C9.83983 10.2674 10.388 10.0553 10.972 10.0553C11.5561 10.0553 12.1042 10.2674 12.5176 10.6577C12.9309 11.048 13.1556 11.5656 13.1556 12.1171C13.1466 13.2541 12.1761 14.1789 10.972 14.1789C10.388 14.1789 9.83983 13.9668 9.42649 13.5765C9.01314 13.1862 8.7885 12.6686 8.7885 12.1171V12.1086C8.77952 11.5741 9.00416 11.0565 9.4175 10.6662ZM13.4611 14.4759C12.8231 15.0783 11.9425 15.4517 10.972 15.4517C10.0285 15.4517 9.14793 15.1038 8.474 14.4759C7.80906 13.8395 7.44065 13.008 7.44065 12.1171C7.43166 11.2347 7.80008 10.4032 8.46502 9.76682C9.13894 9.13046 10.0285 8.78258 10.972 8.78258C11.9155 8.78258 12.8051 9.13046 13.4701 9.75833C14.135 10.3947 14.5034 11.2347 14.5034 12.1171C14.4944 13.042 14.0991 13.8735 13.4611 14.4759Z" fill="white"/>
</svg>
