<svg width="20" height="18" viewBox="0 0 20 18" fill="none" xmlns="http://www.w3.org/2000/svg">
<path d="M14.897 0.670763L14.7476 0.5H14.5207H10.2318H5.94179H5.71489L5.56549 0.670763L1.6237 5.17604L1.34873 5.49031L1.60897 5.81688L9.84075 16.1467L10.2318 16.6374L10.6228 16.1466L18.8535 5.81686L19.1137 5.49029L18.8388 5.17604L14.897 0.670763Z" fill="#ED6FF7" stroke="white"/>
<path d="M14.5207 1H10.2318H5.94179L2 5.50528L10.2318 15.835L18.4625 5.50528L14.5207 1Z" fill="#ED6FF7"/>
<path d="M10.2314 5.38794H6.11548L10.2314 15.8351L14.3462 5.38794H10.2314Z" fill="#E249F2"/>
<path d="M10.2314 1L6.11548 5.38786H14.3462L10.2314 1Z" fill="#FA6AFF"/>
<path d="M2 5.50528H6.11589L10.2318 1H5.94179L2 5.50528Z" fill="#E249F2"/>
<path d="M14.8948 5.38786H19.0107L15.0689 1H10.78L14.8948 5.38786Z" fill="#F989FF"/>
</svg>
