<svg width="31" height="30" viewBox="0 0 31 30" fill="none" xmlns="http://www.w3.org/2000/svg">
<path d="M2.9916 12.463C2.9916 14.2366 3.81303 15.8273 5.09238 16.889C2.73279 18.1935 1.11841 20.6759 1.11841 23.5305V23.7805H1.36841H3.2416H3.4916V23.5305C3.4916 20.6065 5.88235 18.2468 8.86116 18.2468C11.84 18.2468 14.2307 20.6065 14.2307 23.5305V23.7805H14.4807H16.3539H16.6039V23.5305C16.6039 20.6065 18.9947 18.2468 21.9735 18.2468C24.9523 18.2468 27.343 20.6065 27.343 23.5305V23.7805H27.593H29.4662H29.7162V23.5305C29.7162 20.6754 28.1023 18.1941 25.7432 16.8896C26.3461 16.3913 26.8426 15.7777 27.2016 15.0841C27.6217 14.2726 27.8415 13.3747 27.843 12.4634V12.463C27.843 9.27772 25.1987 6.6792 21.9735 6.6792C18.7483 6.6792 16.1039 9.27772 16.1039 12.463C16.1039 14.2361 16.9249 15.8264 18.2036 16.8881C17.0713 17.5091 16.1135 18.3985 15.4173 19.4758C14.7213 18.3988 13.7639 17.5096 12.632 16.8886C13.2345 16.3905 13.7305 15.7772 14.0893 15.0841C14.5093 14.2726 14.7292 13.3747 14.7307 12.4634V12.463C14.7307 9.27772 12.0864 6.6792 8.86116 6.6792C5.63597 6.6792 2.9916 9.27772 2.9916 12.463ZM8.86116 9.02379C10.8088 9.02379 12.3575 10.5544 12.3575 12.463C12.3575 14.3716 10.8088 15.9022 8.86116 15.9022C6.91354 15.9022 5.36478 14.3716 5.36478 12.463C5.36478 10.5544 6.91354 9.02379 8.86116 9.02379ZM21.9735 9.02379C23.9211 9.02379 25.4698 10.5544 25.4698 12.463C25.4698 14.3716 23.9211 15.9022 21.9735 15.9022C20.0259 15.9022 18.4771 14.3716 18.4771 12.463C18.4771 10.5544 20.0259 9.02379 21.9735 9.02379Z" fill="white" stroke="white" stroke-width="0.5"/>
</svg>
