<svg width="31" height="31" viewBox="0 0 31 31" fill="none" xmlns="http://www.w3.org/2000/svg">
<g clip-path="url(#clip0_917_5653)">
<path d="M28.1956 25.5811V15.9572C28.1956 15.2877 28.0569 14.6251 27.7878 14.0102C27.5188 13.3953 27.1251 12.841 26.6308 12.3812L17.4235 3.81241C16.9598 3.38069 16.3458 3.14014 15.7076 3.14014C15.0695 3.14014 14.4555 3.38069 13.9918 3.81241L4.78446 12.3812C4.29022 12.841 3.89651 13.3953 3.62745 14.0102C3.3584 14.6251 3.21965 15.2877 3.21973 15.9572V25.5811C3.21973 26.2334 3.48286 26.859 3.95125 27.3202C4.41964 27.7814 5.05491 28.0405 5.71731 28.0405H25.698C26.3604 28.0405 26.9956 27.7814 27.464 27.3202C27.9324 26.859 28.1956 26.2334 28.1956 25.5811Z" stroke="white" stroke-width="3" stroke-linecap="round" stroke-linejoin="round"/>
</g>
<defs>
<clipPath id="clip0_917_5653">
<rect width="31" height="31" fill="white"/>
</clipPath>
</defs>
</svg>
