<svg width="36" height="28" viewBox="0 0 36 28" fill="none" xmlns="http://www.w3.org/2000/svg">
<path d="M0.428101 10.2231C0.428101 4.86072 4.43569 0.513672 9.37927 0.513672H16.3675C21.3111 0.513672 25.3186 4.86072 25.3186 10.2231C25.3186 15.5855 21.3111 19.9327 16.3675 19.9327H11.0955V24.62C11.0955 24.62 0.428101 22.2763 0.428101 10.2231Z" fill="#F4F5F6"/>
<path fill-rule="evenodd" clip-rule="evenodd" d="M18.6315 21.5998C19.9183 22.94 21.6657 23.7637 23.5905 23.7637H26.2079V27.5136C26.2079 27.5136 35.9863 25.6387 35.9863 15.9961C35.9863 11.7062 32.7802 8.22852 28.8254 8.22852H26.8612C27.0147 8.86126 27.0965 9.52553 27.0965 10.2106C27.0965 15.7982 23.4704 20.4671 18.6315 21.5998Z" fill="#F4F5F6"/>
</svg>
