<svg width="39" height="38" viewBox="0 0 39 38" fill="none" xmlns="http://www.w3.org/2000/svg">
<path d="M38.0256 19C38.0256 29.2173 29.7429 37.5 19.5256 37.5C9.30837 37.5 1.02563 29.2173 1.02563 19C1.02563 8.78273 9.30837 0.5 19.5256 0.5C29.7429 0.5 38.0256 8.78273 38.0256 19Z" stroke="white"/>
<path fill-rule="evenodd" clip-rule="evenodd" d="M20.1615 13.009C22.1333 13.009 23.7317 11.4106 23.7317 9.43881C23.7317 7.46707 22.1333 5.86865 20.1615 5.86865C18.1898 5.86865 16.5914 7.46707 16.5914 9.43881C16.5914 11.4106 18.1898 13.009 20.1615 13.009ZM17.5913 14.7941C17.039 14.7941 16.5913 15.2418 16.5913 15.7941L16.5913 29.8598C16.5913 30.4121 17.039 30.8598 17.5913 30.8598H22.7316C23.2839 30.8598 23.7316 30.4121 23.7316 29.8598L23.7316 15.7941C23.7316 15.2418 23.2839 14.7941 22.7316 14.7941L17.5913 14.7941Z" fill="white"/>
</svg>
