<svg width="31" height="30" viewBox="0 0 31 30" fill="none" xmlns="http://www.w3.org/2000/svg">
<path d="M2.99147 12.463C2.99147 14.2366 3.81291 15.8273 5.09226 16.889C2.73267 18.1935 1.11829 20.6759 1.11829 23.5305V23.7805H1.36829H3.24147H3.49147V23.5305C3.49147 20.6065 5.88223 18.2468 8.86104 18.2468C11.8398 18.2468 14.2306 20.6065 14.2306 23.5305V23.7805H14.4806H16.3538H16.6038V23.5305C16.6038 20.6065 18.9945 18.2468 21.9734 18.2468C24.9522 18.2468 27.3429 20.6065 27.3429 23.5305V23.7805H27.5929H29.4661H29.7161V23.5305C29.7161 20.6754 28.1021 18.1941 25.7431 16.8896C26.346 16.3913 26.8425 15.7777 27.2015 15.0841C27.6215 14.2726 27.8414 13.3747 27.8429 12.4634V12.463C27.8429 9.27772 25.1985 6.6792 21.9734 6.6792C18.7482 6.6792 16.1038 9.27772 16.1038 12.463C16.1038 14.2361 16.9247 15.8264 18.2034 16.8881C17.0712 17.5091 16.1134 18.3985 15.4172 19.4758C14.7212 18.3988 13.7638 17.5096 12.6319 16.8886C13.2343 16.3905 13.7304 15.7772 14.0892 15.0841C14.5092 14.2726 14.7291 13.3747 14.7306 12.4634V12.463C14.7306 9.27772 12.0862 6.6792 8.86104 6.6792C5.63585 6.6792 2.99147 9.27772 2.99147 12.463ZM8.86104 9.02379C10.8087 9.02379 12.3574 10.5544 12.3574 12.463C12.3574 14.3716 10.8087 15.9022 8.86104 15.9022C6.91342 15.9022 5.36466 14.3716 5.36466 12.463C5.36466 10.5544 6.91342 9.02379 8.86104 9.02379ZM21.9734 9.02379C23.921 9.02379 25.4697 10.5544 25.4697 12.463C25.4697 14.3716 23.921 15.9022 21.9734 15.9022C20.0257 15.9022 18.477 14.3716 18.477 12.463C18.477 10.5544 20.0257 9.02379 21.9734 9.02379Z" fill="white" stroke="white" stroke-width="0.5"/>
</svg>
