<svg width="38" height="38" viewBox="0 0 38 38" fill="none" xmlns="http://www.w3.org/2000/svg">
<path d="M37.5 19C37.5 29.2173 29.2173 37.5 19 37.5C8.78273 37.5 0.5 29.2173 0.5 19C0.5 8.78273 8.78273 0.5 19 0.5C29.2173 0.5 37.5 8.78273 37.5 19Z" stroke="white"/>
<path d="M24.7466 22.9888C24.2414 23.393 23.4836 23.3425 23.0542 22.812C22.6247 22.2815 22.7258 21.5237 23.2563 21.0943C23.9383 20.5386 24.3677 19.6797 24.3677 18.7451C24.3677 17.7347 23.8878 16.8505 23.13 16.2948C22.65 15.9412 22.5742 15.2339 22.9531 14.7792L23.0542 14.6782C23.4583 14.1982 24.2162 14.0972 24.6961 14.4761C25.9591 15.4612 26.7675 17.0274 26.7675 18.7451C26.7675 20.4628 25.9844 21.9784 24.7466 22.9888Z" fill="white"/>
<path d="M27.5005 26.3737C26.9953 26.7779 26.2627 26.6769 25.8333 26.1969C25.4291 25.6917 25.4796 24.9339 25.9848 24.5297C27.652 23.1404 28.7382 21.069 28.7382 18.7451C28.7382 16.4211 27.652 14.3245 25.9848 12.9604C25.4796 12.5563 25.4291 11.7985 25.8333 11.2933C26.2375 10.788 26.9953 10.687 27.5005 11.0912C29.7234 12.8847 31.1632 15.6381 31.1632 18.7198C31.138 21.8269 29.7234 24.5802 27.5005 26.3737Z" fill="white"/>
<path d="M17.6992 28.2177L11.561 23.494H8.55497C7.77189 23.494 7.14038 22.8625 7.14038 22.0794L7.14038 15.4106C7.14038 14.6276 7.77189 13.9961 8.55497 13.9961L11.561 13.9961L17.7245 9.27236C18.8107 8.43876 20.3516 9.19658 20.3516 10.5859L20.3516 26.9294C20.3516 28.2682 18.7854 29.0513 17.6992 28.2177Z" fill="white"/>
</svg>
