<svg width="39" height="38" viewBox="0 0 39 38" fill="none" xmlns="http://www.w3.org/2000/svg">
<path d="M37.7627 19C37.7627 29.2173 29.48 37.5 19.2627 37.5C9.04543 37.5 0.762695 29.2173 0.762695 19C0.762695 8.78273 9.04543 0.5 19.2627 0.5C29.48 0.5 37.7627 8.78273 37.7627 19Z" stroke="white"/>
<path d="M10.8347 23.7286C10.1035 23.3346 9.60653 22.5618 9.60653 21.6729L9.60653 14.6721C9.60653 13.3832 10.6513 12.3384 11.9401 12.3384L16.1849 12.3384L22.5367 7.04528C22.9561 6.69579 23.4848 6.50439 24.0307 6.50439H24.775C26.0639 6.50439 27.1087 7.54919 27.1087 8.83801V10.0797L10.8347 23.7286ZM27.1087 16.1711L27.1087 27.507C27.1087 28.7958 26.0639 29.8406 24.775 29.8406H24.0307C23.4848 29.8406 22.9561 29.6492 22.5367 29.2997L16.9781 24.6675L27.1087 16.1711ZM9.31971 29.5678C8.82597 29.9819 8.09001 29.9173 7.67591 29.4236C7.2618 28.9298 7.32637 28.1939 7.82011 27.7798L28.6925 10.2742C29.1862 9.86009 29.9222 9.92465 30.3363 10.4184C30.7504 10.9121 30.6858 11.6481 30.1921 12.0622L9.31971 29.5678Z" fill="white"/>
</svg>
