<svg width="28" height="27" viewBox="0 0 28 27" fill="none" xmlns="http://www.w3.org/2000/svg">
<path d="M2.21973 22.3142C2.21973 20.7892 2.8355 19.3267 3.93158 18.2483C5.02766 17.17 6.51427 16.5642 8.06436 16.5642H19.7536C21.3037 16.5642 22.7903 17.17 23.8864 18.2483C24.9825 19.3267 25.5983 20.7892 25.5983 22.3142C25.5983 23.0767 25.2904 23.808 24.7423 24.3471C24.1943 24.8863 23.451 25.1892 22.6759 25.1892H5.14204C4.367 25.1892 3.62369 24.8863 3.07565 24.3471C2.52761 23.808 2.21973 23.0767 2.21973 22.3142Z" stroke="#F8F8F8" stroke-width="3" stroke-linejoin="round"/>
<path d="M13.909 10.8142C16.3299 10.8142 18.2925 8.88344 18.2925 6.50171C18.2925 4.11998 16.3299 2.18921 13.909 2.18921C11.4881 2.18921 9.52551 4.11998 9.52551 6.50171C9.52551 8.88344 11.4881 10.8142 13.909 10.8142Z" stroke="#F8F8F8" stroke-width="3"/>
</svg>
