<svg width="31" height="31" viewBox="0 0 31 31" fill="none" xmlns="http://www.w3.org/2000/svg">
<path d="M30.5481 12.7474L27.143 11.7474C26.9075 10.9387 26.5838 10.1575 26.1773 9.41738L27.8443 6.34737C27.9069 6.23149 27.9298 6.09886 27.9096 5.96916C27.8895 5.83945 27.8274 5.7196 27.7325 5.62738L25.3032 3.22737C25.2094 3.13404 25.0876 3.07294 24.9558 3.05312C24.8239 3.0333 24.6891 3.05584 24.5713 3.11737L21.4711 4.74737C20.7114 4.32803 19.9069 3.99266 19.0723 3.74737L18.0558 0.437375C18.0128 0.315391 17.9316 0.209974 17.8238 0.136297C17.7161 0.0626195 17.5873 0.0244824 17.4561 0.0273748H14.0205C13.8885 0.0279794 13.7601 0.0700094 13.6541 0.147348C13.5481 0.224687 13.4699 0.333298 13.4309 0.457375L12.4145 3.75737C11.5729 4.00135 10.7615 4.33675 9.99531 4.75737L6.94594 3.13737C6.82815 3.07584 6.69333 3.0533 6.5615 3.07312C6.42966 3.09294 6.30783 3.15404 6.21409 3.24737L3.7441 5.61737C3.64923 5.7096 3.58712 5.82945 3.56697 5.95916C3.54683 6.08886 3.56974 6.22149 3.63229 6.33738L5.27895 9.33738C4.85209 10.088 4.51119 10.8828 4.26249 11.7074L0.898015 12.7074C0.771895 12.7457 0.661497 12.8226 0.582885 12.9269C0.504274 13.0312 0.461552 13.1575 0.460938 13.2874V16.6674C0.461552 16.7972 0.504274 16.9235 0.582885 17.0278C0.661497 17.1321 0.771895 17.2091 0.898015 17.2474L4.28282 18.2474C4.53424 19.0582 4.87509 19.8395 5.29928 20.5774L3.63229 23.7174C3.56974 23.8333 3.54683 23.9659 3.56697 24.0956C3.58712 24.2253 3.64923 24.3452 3.7441 24.4374L6.17343 26.8274C6.26717 26.9207 6.389 26.9818 6.52084 27.0016C6.65267 27.0214 6.78749 26.9989 6.90528 26.9374L10.0461 25.2874C10.7891 25.6818 11.5729 25.9969 12.384 26.2274L13.4004 29.5974C13.4394 29.7215 13.5176 29.8301 13.6236 29.9074C13.7296 29.9847 13.858 30.0268 13.99 30.0274H17.4256C17.5576 30.0268 17.686 29.9847 17.792 29.9074C17.898 29.8301 17.9762 29.7215 18.0152 29.5974L19.0316 26.2174C19.8358 25.9857 20.6127 25.6706 21.3492 25.2774L24.5103 26.9374C24.6281 26.9989 24.7629 27.0214 24.8948 27.0016C25.0266 26.9818 25.1484 26.9207 25.2422 26.8274L27.6715 24.4374C27.7664 24.3452 27.8285 24.2253 27.8486 24.0956C27.8688 23.9659 27.8459 23.8333 27.7833 23.7174L26.096 20.6174C26.4999 19.8901 26.8236 19.1224 27.0616 18.3274L30.4871 17.3274C30.6132 17.2891 30.7236 17.2121 30.8022 17.1078C30.8809 17.0035 30.9236 16.8772 30.9242 16.7474V13.3374C30.9302 13.213 30.8974 13.0898 30.8301 12.9844C30.7629 12.8789 30.6645 12.7962 30.5481 12.7474ZM15.7383 20.5274C14.6326 20.5274 13.5517 20.2048 12.6324 19.6005C11.713 18.9961 10.9965 18.1371 10.5733 17.1321C10.1502 16.1271 10.0395 15.0213 10.2552 13.9544C10.4709 12.8875 11.0034 11.9075 11.7852 11.1383C12.5671 10.3691 13.5632 9.84528 14.6476 9.63306C15.7321 9.42084 16.8562 9.52976 17.8777 9.94604C18.8992 10.3623 19.7724 11.0673 20.3866 11.9717C21.0009 12.8762 21.3288 13.9396 21.3288 15.0274C21.3288 16.4861 20.7398 17.885 19.6914 18.9165C18.643 19.9479 17.221 20.5274 15.7383 20.5274Z" fill="#F8F8F8"/>
</svg>
