<svg width="42" height="37" viewBox="0 0 42 37" fill="none" xmlns="http://www.w3.org/2000/svg">
<path d="M12.0829 12.1751L13.9022 0.100098H4.44L0.486303 10.4501C0.364403 10.8181 0.300003 11.1999 0.300003 11.6001C0.300003 14.1393 2.945 16.2001 6.2133 16.2001C9.2263 16.2001 11.7172 14.4429 12.0829 12.1751ZM21 16.2001C24.266 16.2001 26.9133 14.1393 26.9133 11.6001C26.9133 11.5058 26.9064 11.4115 26.9018 11.3218L25.7311 0.100098H16.2689L15.0959 11.3126C15.0905 11.4083 15.0874 11.5042 15.0867 11.6001C15.0867 14.1393 17.734 16.2001 21 16.2001ZM32.5 18.6059V27.7001H9.5V18.6197C8.4926 18.9831 7.384 19.1901 6.2133 19.1901C5.7648 19.1901 5.3301 19.1372 4.9 19.0774V33.6801C4.9 35.4511 6.3467 36.9001 8.1154 36.9001H33.88C35.651 36.9001 37.1 35.4488 37.1 33.6801V19.0797C36.6652 19.1465 36.2265 19.1841 35.7867 19.1924C34.6652 19.1913 33.5527 18.9927 32.5 18.6059ZM41.516 10.4501L37.5577 0.100098H28.0978L29.9148 12.1567C30.269 14.4337 32.7599 16.2001 35.7867 16.2001C39.0527 16.2001 41.7 14.1393 41.7 11.6001C41.7 11.1999 41.6356 10.8181 41.516 10.4501Z" fill="#DA00FE"/>
</svg>
